<svg width="439" height="511" viewBox="0 0 439 511" fill="none" xmlns="http://www.w3.org/2000/svg">
<path d="M372.613 141.88H323.384V104.29C323.384 46.79 276.594 0 219.084 0C161.574 0 114.784 46.79 114.784 104.3V141.89H65.5535C27.4935 141.88 -2.56648 174.2 0.173519 212.17L16.6235 439.29C19.5435 479.6 53.1035 510.81 93.5135 510.81H344.654C385.074 510.81 418.624 479.6 421.544 439.29L437.993 212.17C440.743 174.2 410.683 141.88 372.613 141.88ZM169.794 104.29C169.794 77.11 191.904 54.99 219.094 54.99C246.284 54.99 268.394 77.1 268.394 104.29V141.88H169.804V104.29H169.794ZM383.144 208.19L366.694 435.31C365.864 446.8 356.184 455.81 344.654 455.81H93.5135C81.9935 455.81 72.3135 446.81 71.4735 435.31L55.0235 208.19C54.7535 204.4 56.3935 201.78 57.8235 200.24C59.2535 198.7 61.7535 196.87 65.5535 196.87H114.784V246.01C114.784 261.2 127.094 273.51 142.284 273.51C157.474 273.51 169.784 261.2 169.784 246.01V196.87H268.374V246.01C268.374 261.2 280.684 273.51 295.874 273.51C311.064 273.51 323.374 261.2 323.374 246.01V196.87H372.604C376.404 196.87 378.903 198.7 380.333 200.24C381.763 201.78 383.404 204.4 383.134 208.19H383.144Z" fill="black"/>
</svg>
